<svg xmlns="http://www.w3.org/2000/svg" version="1.1" xmlns:xlink="http://www.w3.org/1999/xlink" xmlns:svgjs="http://svgjs.dev/svgjs" width="1000" height="1000" viewBox="0 0 1000 1000"><rect width="1000" height="1000" fill="#ffffff"></rect><g transform="matrix(0.7,0,0,0.7,149.57575757575756,334.03118998241905)"><svg viewBox="0 0 396 188" data-background-color="#ffffff" preserveAspectRatio="xMidYMid meet" height="474" width="1000" xmlns="http://www.w3.org/2000/svg" xmlns:xlink="http://www.w3.org/1999/xlink"><g id="tight-bounds" transform="matrix(1,0,0,1,0.2400000000000091,0.038988195615516474)"><svg viewBox="0 0 395.52 187.92202360876897" height="187.92202360876897" width="395.52"><g><svg viewBox="0 0 395.52 187.92202360876897" height="187.92202360876897" width="395.52"><g><svg viewBox="0 0 395.52 187.92202360876897" height="187.92202360876897" width="395.52"><g><svg viewBox="0 0 395.52 187.92202360876897" height="187.92202360876897" width="395.52"><g><svg viewBox="0 0 395.52 187.92202360876897" height="187.92202360876897" width="395.52"><g transform="matrix(1,0,0,1,0,0)"><svg width="395.52" viewBox="0 -35.65 118.58 56.349999999999994" height="187.92202360876897" data-palette-color="#332885"><path d="M22.45-5.4L22.45-5.4Q22.85-5.4 22.85-4.8L22.85-4.8Q22.85-4.05 20.53-2.5 18.2-0.95 14.53 0.38 10.85 1.7 7.8 1.7L7.8 1.7Q0 1.7 0-6.95L0-6.95Q0-11.35 1.98-15.8 3.95-20.25 7.08-23.73 10.2-27.2 13.88-29.95 17.55-32.7 21.18-34.18 24.8-35.65 27.55-35.65L27.55-35.65Q33.25-35.65 33.25-31.25L33.25-31.25Q33.25-27.95 30.2-23.4 27.15-18.85 22.75-15.5 18.35-12.15 14.85-12.15L14.85-12.15Q12.15-12.15 12.15-14.7L12.15-14.7Q12.15-17.95 16.38-22.73 20.6-27.5 23.6-27.5L23.6-27.5Q24-27.5 24-27.2L24-27.2 23.75-26.55Q21.95-26.55 19.5-24.5 17.05-22.45 15.35-19.75 13.65-17.05 13.65-15.25L13.65-15.25Q13.65-13.25 15.7-13.25L15.7-13.25Q18.25-13.25 21.98-16.35 25.7-19.45 28.43-23.68 31.15-27.9 31.15-30.8L31.15-30.8Q31.15-34.45 26.55-34.45L26.55-34.45Q24.15-34.45 20.9-33.08 17.65-31.7 14.35-29.1 11.05-26.5 8.22-23.25 5.4-20 3.63-15.83 1.85-11.65 1.85-7.5L1.85-7.5Q1.85 0.4 8.85 0.4L8.85 0.4Q12.5 0.4 16.75-1.58 21-3.55 22.45-5.4ZM35.7-9.35Q35.7-9.3 34.57-7.58 33.45-5.85 32.82-4.95 32.2-4.05 27.6 3.45L27.6 3.45Q28 3.4 28.9 3.4L28.9 3.4Q31.3 3.4 31.3 4.65L31.3 4.65Q31.3 5.35 30.4 6.3 29.5 7.25 29 7.25 28.5 7.25 28.5 6.9L28.5 6.9Q28.5 6.7 29.05 6.28 29.6 5.85 29.6 5.28 29.6 4.7 28.62 4.7 27.65 4.7 26.75 4.85L26.75 4.85Q22.2 12.3 18.9 16.5 15.6 20.7 13.25 20.7L13.25 20.7Q11.55 20.7 11.55 18.95L11.55 18.95Q11.55 15.95 16.07 10.63 20.6 5.3 25.9 3.8L25.9 3.8 30.7-4.5Q28.6-2.6 26.37-1.15 24.15 0.3 23 0.3 21.85 0.3 21.85-0.75L21.85-0.75Q21.85-2.35 27.1-9.6L27.1-9.6Q27.35-10 27.75-10L27.75-10Q28.9-9.65 28.9-9.5 28.9-9.35 28.6-8.9L28.6-8.9Q24.1-2.8 24.1-1.85L24.1-1.85Q24.1-1.25 24.77-1.25 25.45-1.25 27.57-2.85 29.7-4.45 31.2-6.1L31.2-6.1 34-9.5Q34.3-9.85 34.75-9.85L34.75-9.85Q35.7-9.7 35.7-9.35L35.7-9.35ZM16.4 11.68Q14.95 13.65 14.1 15.43 13.25 17.2 13.25 18.23 13.25 19.25 14.05 19.25L14.05 19.25Q16.55 19.25 25 5.25L25 5.25Q22.5 6.05 20.17 7.88 17.85 9.7 16.4 11.68ZM66.59-5.4L66.59-5.4Q66.99-5.4 66.99-4.8L66.99-4.8Q66.99-4.05 64.67-2.5 62.34-0.95 58.67 0.38 54.99 1.7 51.94 1.7L51.94 1.7Q44.14 1.7 44.14-6.95L44.14-6.95Q44.14-11.35 46.12-15.8 48.09-20.25 51.22-23.73 54.34-27.2 58.02-29.95 61.69-32.7 65.32-34.18 68.94-35.65 71.69-35.65L71.69-35.65Q77.39-35.65 77.39-31.25L77.39-31.25Q77.39-27.95 74.34-23.4 71.29-18.85 66.89-15.5 62.49-12.15 58.99-12.15L58.99-12.15Q56.29-12.15 56.29-14.7L56.29-14.7Q56.29-17.95 60.52-22.73 64.74-27.5 67.74-27.5L67.74-27.5Q68.14-27.5 68.14-27.2L68.14-27.2 67.89-26.55Q66.09-26.55 63.64-24.5 61.19-22.45 59.49-19.75 57.79-17.05 57.79-15.25L57.79-15.25Q57.79-13.25 59.84-13.25L59.84-13.25Q62.39-13.25 66.12-16.35 69.84-19.45 72.57-23.68 75.29-27.9 75.29-30.8L75.29-30.8Q75.29-34.45 70.69-34.45L70.69-34.45Q68.29-34.45 65.04-33.08 61.79-31.7 58.49-29.1 55.19-26.5 52.37-23.25 49.54-20 47.77-15.83 45.99-11.65 45.99-7.5L45.99-7.5Q45.99 0.4 52.99 0.4L52.99 0.4Q56.64 0.4 60.89-1.58 65.14-3.55 66.59-5.4ZM79.84-9.35Q79.84-9.3 78.72-7.58 77.59-5.85 76.97-4.95 76.34-4.05 71.74 3.45L71.74 3.45Q72.14 3.4 73.04 3.4L73.04 3.4Q75.44 3.4 75.44 4.65L75.44 4.65Q75.44 5.35 74.54 6.3 73.64 7.25 73.14 7.25 72.64 7.25 72.64 6.9L72.64 6.9Q72.64 6.7 73.19 6.28 73.74 5.85 73.74 5.28 73.74 4.7 72.77 4.7 71.79 4.7 70.89 4.85L70.89 4.85Q66.34 12.3 63.04 16.5 59.74 20.7 57.39 20.7L57.39 20.7Q55.69 20.7 55.69 18.95L55.69 18.95Q55.69 15.95 60.22 10.63 64.74 5.3 70.04 3.8L70.04 3.8 74.84-4.5Q72.74-2.6 70.52-1.15 68.29 0.3 67.14 0.3 65.99 0.3 65.99-0.75L65.99-0.75Q65.99-2.35 71.24-9.6L71.24-9.6Q71.49-10 71.89-10L71.89-10Q73.04-9.65 73.04-9.5 73.04-9.35 72.74-8.9L72.74-8.9Q68.24-2.8 68.24-1.85L68.24-1.85Q68.24-1.25 68.92-1.25 69.59-1.25 71.72-2.85 73.84-4.45 75.34-6.1L75.34-6.1 78.14-9.5Q78.44-9.85 78.89-9.85L78.89-9.85Q79.84-9.7 79.84-9.35L79.84-9.35ZM60.54 11.68Q59.09 13.65 58.24 15.43 57.39 17.2 57.39 18.23 57.39 19.25 58.19 19.25L58.19 19.25Q60.69 19.25 69.14 5.25L69.14 5.25Q66.64 6.05 64.31 7.88 61.99 9.7 60.54 11.68ZM84.54-1.2L85.04-1.4Q87.44-2.4 90.19-4.1L90.19-4.1 91.14-4.7Q91.19-4.6 91.19-4.3 91.19-4 90.74-3.8L90.74-3.8Q88.09-2 85.44-0.65 82.79 0.7 80.54 0.7L80.54 0.7Q77.69 0.7 77.69-1.35L77.69-1.35Q77.69-3.8 81.11-6.88 84.54-9.95 87.89-9.95L87.89-9.95Q89.29-9.95 89.29-8.75L89.29-8.75Q89.29-8.05 88.04-7L88.04-7Q86.29-5.55 85.84-5.55 85.39-5.55 85.39-5.95L85.39-5.95Q85.39-6.1 85.59-6.25L85.59-6.25Q86.09-6.55 86.71-7.18 87.34-7.8 87.34-8.25L87.34-8.25Q87.34-8.95 86.69-8.95L86.69-8.95Q85.29-8.95 82.59-6.43 79.89-3.9 79.89-2.35L79.89-2.35Q79.89-0.6 81.79-0.6L81.79-0.6Q83.04-0.6 84.54-1.2L84.54-1.2ZM91.03 0.8L91.03 0.8Q88.78 0.8 88.78-1.65L88.78-1.65Q88.78-4.9 92.31-10.98 95.84-17.05 100.36-21.88 104.89-26.7 107.48-26.7L107.48-26.7Q108.44-26.7 108.44-25.35L108.44-25.35Q108.44-23.25 104.91-18.5 101.39-13.75 97.34-9.6 93.28-5.45 91.09-3.9L91.09-3.9Q90.98-3.1 90.98-2.83 90.98-2.55 91.03-2.2 91.09-1.85 91.44-1.3 91.78-0.75 92.61-0.75 93.44-0.75 95.53-1.73 97.64-2.7 99.23-3.7L99.23-3.7 100.84-4.7Q100.89-4.6 100.89-4.3 100.89-4 100.44-3.8L100.44-3.8Q93.69 0.8 91.03 0.8ZM106.64-24.15L106.64-24.15Q106.59-25.25 105.98-25.25L105.98-25.25Q104.44-25.25 101.28-21.75 98.14-18.25 95.19-13.38 92.23-8.5 91.34-5L91.34-5Q93.44-6.7 96.73-10 100.03-13.3 103.23-17.55 106.44-21.8 106.64-24.15ZM102.13-4.85L102.13-4.85Q99.13-4.85 99.13-6.15L99.13-6.15Q99.13-7.7 102.68-9.83 106.23-11.95 109.08-11.95L109.08-11.95Q110.53-11.95 110.53-11.05L110.53-11.05Q110.53-10.55 109.78-9.95 109.03-9.35 108.33-9 107.63-8.65 107.53-8.65L107.53-8.65Q107.23-8.65 107.13-8.9L107.13-8.9Q107.03-9.25 107.66-9.63 108.28-10 108.28-10.45 108.28-10.9 107.16-10.9 106.03-10.9 103.63-9.33 101.23-7.75 101.23-6.75L101.23-6.75Q101.23-6 102.98-6L102.98-6Q103.28-6 104.08-6.05 104.88-6.1 104.88-5.85 104.88-5.6 102.41-4.05 99.93-2.5 99.93-1.4L99.93-1.4Q99.93-0.15 101.56-0.15 103.18-0.15 105.23-1L105.23-1Q108.53-2.45 111.23-4.1L111.23-4.1 112.18-4.7Q112.23-4.6 112.23-4.3 112.23-4 111.78-3.8L111.78-3.8Q109.13-2 105.98-0.38 102.83 1.25 100.31 1.25 97.78 1.25 97.78-0.43 97.78-2.1 102.13-4.85ZM113.78-5.45L113.78-5.45Q111.38-3.25 110.73-3.25L110.73-3.25Q110.53-3.25 110.53-3.45 110.53-3.65 110.68-3.8L110.68-3.8Q111.88-4.45 113.48-5.9L113.48-5.9Q113.23-6.5 113.23-7.2L113.23-7.2Q113.23-8.9 114.98-10.45 116.73-12 117.93-12L117.93-12Q118.58-12 118.58-11.38 118.58-10.75 116.58-8.35L116.58-8.35Q116.38-8.1 116.13-7.85 115.88-7.6 115.61-7.28 115.33-6.95 115.18-6.8L115.18-6.8Q115.43-6.55 116.08-5.93 116.73-5.3 117.13-4.9L117.13-4.9Q118.23-3.8 118.23-2.15 118.23-0.5 116.18 0.73 114.13 1.95 111.91 1.95 109.68 1.95 109.68 0.63 109.68-0.7 111.73-1.8 113.78-2.9 116.03-3.3L116.03-3.3Q115.73-3.7 114.91-4.35 114.08-5 113.78-5.45ZM116.38-2.7Q114.68-2.5 113.18-1.78 111.68-1.05 111.68-0.08 111.68 0.9 113.06 0.9 114.43 0.9 115.51 0.25 116.58-0.4 116.58-1.2 116.58-2 116.38-2.7L116.38-2.7ZM114.83-7.2L114.83-7.2 116.13-8.6Q117.43-10.15 117.43-10.48 117.43-10.8 117.13-10.8L117.13-10.8Q116.28-10.8 115.38-9.98 114.48-9.15 114.48-8.38 114.48-7.6 114.83-7.2Z" opacity="1" transform="matrix(1,0,0,1,0,0)" fill="#000000" class="undefined-text-0" data-fill-palette-color="primary" id="text-0"></path></svg></g></svg></g></svg></g></svg></g><g></g></svg></g><defs></defs></svg><rect width="395.52" height="187.92202360876897" fill="none" stroke="none" visibility="hidden"></rect></g></svg></g></svg>